#N canvas 666 132 450 300 12;
#X obj 73 92 until;
#X obj 73 205 list store;
#X obj 73 59 t b b l;
#X obj 73 118 f;
#X obj 111 118 + 1;
#X msg 125 92 0;
#X msg 73 176 get \$1 1;
#X obj 73 231 list trim;
#X obj 73 9 inlet;
#X obj 73 267 outlet;
#X text 206 39 from [list] help file \; see [pd example3] \;;
#X obj 73 147 t f f;
#X obj 73 34 route list float;
#X connect 0 0 3 0;
#X connect 1 0 7 0;
#X connect 1 1 0 1;
#X connect 2 0 0 0;
#X connect 2 1 5 0;
#X connect 2 2 1 1;
#X connect 3 0 11 0;
#X connect 4 0 3 1;
#X connect 5 0 3 1;
#X connect 6 0 1 0;
#X connect 7 0 9 0;
#X connect 8 0 12 0;
#X connect 11 0 6 0;
#X connect 11 1 4 0;
#X connect 12 0 2 0;
#X connect 12 1 9 0;
