#N canvas 0 23 897 647 12;
#X obj 104 41 inlet;
#X obj 104 203 f 0;
#X obj 104 227 t f f;
#X obj 154 227 + 1;
#X obj 154 341 % 1e+09;
#X obj 104 88 b;
#X msg 151 159 0;
#X obj 244 41 inlet;
#X obj 390 41 inlet;
#X obj 104 423 +;
#X obj 389 204 -;
#X obj 379 171 t b f;
#X text 241 17 min;
#X text 397 17 max;
#X text 95 19 trigger;
#X obj 494 41 inlet;
#X text 494 17 reset;
#X obj 104 539 outlet;
#X obj 194 539 outlet;
#X obj 104 481 t f f;
#X obj 194 481 sel 0;
#X obj 389 232 t f f;
#X obj 421 258 moses;
#X msg 471 282 1;
#X msg 421 282 -1;
#X obj 200 306 +;
#X obj 244 115 t f f f b;
#X obj 390 115 t f b;
#X text 215 340 <<< really big \; --- number \;;
#X text 193 565 bang when \; count starts \; or wraps \;;
#X obj 663 18 loadbang;
#X obj 663 92 pdcontrol;
#X msg 663 42 args 0;
#X obj 663 116 route bang;
#X obj 730 142 unpack;
#X obj 244 88 int;
#X obj 390 88 int;
#X text 421 206 <<< range \;;
#X text 511 266 <<< deal with reversed ranges \;;
#X obj 421 306 t f f;
#X obj 471 306 t f f;
#X obj 494 68 route bang float;
#X connect 0 0 5 0;
#X connect 1 0 2 0;
#X connect 2 0 9 0;
#X connect 2 1 3 0;
#X connect 3 0 4 0;
#X connect 4 0 1 1;
#X connect 5 0 1 0;
#X connect 6 0 1 1;
#X connect 7 0 35 0;
#X connect 8 0 36 0;
#X connect 9 0 19 0;
#X connect 10 0 21 0;
#X connect 11 0 10 0;
#X connect 11 1 10 1;
#X connect 15 0 41 0;
#X connect 19 0 17 0;
#X connect 19 1 20 0;
#X connect 20 0 18 0;
#X connect 21 0 25 0;
#X connect 21 1 22 0;
#X connect 22 0 24 0;
#X connect 22 1 23 0;
#X connect 23 0 40 0;
#X connect 24 0 39 0;
#X connect 25 0 4 1;
#X connect 26 0 9 1;
#X connect 26 1 20 1;
#X connect 26 2 11 0;
#X connect 26 3 6 0;
#X connect 27 0 10 0;
#X connect 27 1 6 0;
#X connect 30 0 32 0;
#X connect 31 0 33 0;
#X connect 32 0 31 0;
#X connect 33 1 34 0;
#X connect 34 0 35 0;
#X connect 34 1 36 0;
#X connect 35 0 26 0;
#X connect 36 0 27 0;
#X connect 39 0 25 1;
#X connect 39 1 3 1;
#X connect 40 0 3 1;
#X connect 40 1 25 1;
#X connect 41 0 6 0;
#X connect 41 1 1 1;
