#N canvas 0 23 450 300 12;
#X obj 147 44 inlet;
#X msg 147 98 quit;
#X obj 147 216 s pd;
#X obj 147 152 spigot 1;
#X obj 270 71 r autoexitoff;
#X obj 270 95 sel 1;
#X msg 270 119 0;
#X connect 0 0 1 0;
#X connect 1 0 3 0;
#X connect 3 0 2 0;
#X connect 4 0 5 0;
#X connect 5 0 6 0;
#X connect 6 0 3 1;
