#N canvas 345 144 769 487 12;
#X declare -path ./modules;
#X obj 36 69 loadbang;
#N canvas 1 83 450 354 TEST 0;
#X obj 104 40 inlet~ fwd;
#X obj 171 73 route bang test;
#X obj 104 174 snapshot~;
#X obj 104 228 f;
#X obj 104 255 sel 1;
#X obj 23 89 loadbang;
#X msg 23 113 1;
#X obj 23 137 metro 25;
#X obj 104 312 stdout -cr;
#X obj 222 139 stdout -cr;
#X msg 222 109 nonaudio2;
#X msg 104 279 audiozzzz;
#X connect 0 0 2 0;
#X connect 0 1 1 0;
#X connect 1 0 3 0;
#X connect 1 1 10 0;
#X connect 2 0 3 1;
#X connect 3 0 4 0;
#X connect 4 0 11 0;
#X connect 5 0 6 0;
#X connect 6 0 7 0;
#X connect 7 0 2 0;
#X connect 10 0 9 0;
#X connect 11 0 8 0;
#X restore 172 318 pd TEST;
#X obj 36 100 t b b;
#X msg 68 130 \; pd dsp 1 \;;
#X obj 172 286 sig~ 1;
#X obj 36 229 del 100;
#X obj 36 255 t b b b;
#X obj 35 363 del 1000;
#X obj 36 185 t b b b;
#X msg 132 225 teststart;
#X msg 59 286 testend;
#X obj 59 318 stdout -cr;
#X obj 430 234 declare -path ./modules;
#X msg 234 286 test;
#X text 336 56 This test fails on purpose:;
#X obj 35 389 EXIT;
#X connect 0 0 2 0;
#X connect 2 0 8 0;
#X connect 2 1 3 0;
#X connect 4 0 1 0;
#X connect 5 0 6 0;
#X connect 6 0 7 0;
#X connect 6 1 10 0;
#X connect 6 2 1 0;
#X connect 7 0 15 0;
#X connect 8 0 5 0;
#X connect 8 1 13 0;
#X connect 8 2 9 0;
#X connect 9 0 11 0;
#X connect 10 0 11 0;
#X connect 13 0 1 0;
