#N canvas 539 155 679 493 12;
#X declare -path ./modules;
#X obj 185 37 loadbang;
#X obj 185 71 t b b;
#X msg 217 105 teststart;
#X obj 217 129 stdout -cr;
#X msg 231 267 2.3;
#X obj 231 291 t f f;
#X obj 263 316 f;
#X obj 231 316 i;
#X obj 231 380 stdout -cr;
#X msg 208 229 testend;
#X obj 449 43 declare -path ./modules;
#X obj 345 273 float -100;
#X obj 333 310 r my_recv;
#X msg 345 234 send my_recv;
#X obj 475 230 makefilename %f;
#X msg 475 206 42.23;
#X symbolatom 475 256 10 0 0 0 - - -;
#X obj 475 279 f;
#X obj 185 165 t b b b b b b;
#X obj 185 439 EXIT;
#X connect 0 0 1 0;
#X connect 1 0 18 0;
#X connect 1 1 2 0;
#X connect 2 0 3 0;
#X connect 4 0 5 0;
#X connect 5 0 7 0;
#X connect 5 1 6 0;
#X connect 6 0 8 0;
#X connect 7 0 8 0;
#X connect 9 0 8 0;
#X connect 11 0 8 0;
#X connect 12 0 8 0;
#X connect 13 0 11 0;
#X connect 14 0 16 0;
#X connect 15 0 14 0;
#X connect 16 0 17 0;
#X connect 17 0 8 0;
#X connect 18 0 19 0;
#X connect 18 1 9 0;
#X connect 18 2 4 0;
#X connect 18 3 11 0;
#X connect 18 4 13 0;
#X connect 18 5 15 0;
