#N canvas 345 144 769 487 12;
#X obj 36 69 loadbang;
#X obj 35 437 s pd;
#N canvas 0 23 450 354 TEST 0;
#X obj 104 40 inlet~ fwd;
#X obj 171 73 route bang test;
#X obj 104 174 snapshot~;
#X obj 104 228 f;
#X msg 222 109 nonaudio;
#X obj 104 255 sel 1;
#X msg 104 279 audio;
#X obj 23 89 loadbang;
#X msg 23 113 1;
#X obj 23 137 metro 25;
#X obj 104 312 stdout -cr;
#X obj 222 139 stdout -cr;
#X connect 0 0 2 0;
#X connect 0 1 1 0;
#X connect 1 0 3 0;
#X connect 1 1 4 0;
#X connect 2 0 3 1;
#X connect 3 0 5 0;
#X connect 4 0 11 0;
#X connect 5 0 6 0;
#X connect 6 0 10 0;
#X connect 7 0 8 0;
#X connect 8 0 9 0;
#X connect 9 0 2 0;
#X restore 172 318 pd TEST;
#X msg 234 286 test;
#X obj 36 100 t b b;
#X msg 68 130 \; pd dsp 1 \;;
#X obj 172 286 sig~ 1;
#X obj 36 229 del 100;
#X obj 36 255 t b b b;
#X obj 35 363 del 1000;
#X obj 36 185 t b b b;
#X msg 132 225 teststart;
#X msg 59 286 testend;
#X obj 59 318 stdout -cr;
#X obj 240 170 sel 1;
#X obj 240 146 r autoexitoff;
#X obj 35 409 spigot 1;
#X msg 240 194 0;
#X text 377 11 TEST \; \; Check that [inlet~] forwards nonaudio signals
\; and still works with audio \; \; Msg from Pd to Lua \; 1: teststart
\; 2: nonaudio \; 3: audio \; 4: testend \;;
#X msg 34 386 quit;
#X connect 0 0 4 0;
#X connect 3 0 2 0;
#X connect 4 0 10 0;
#X connect 4 1 5 0;
#X connect 6 0 2 0;
#X connect 7 0 8 0;
#X connect 8 0 9 0;
#X connect 8 1 12 0;
#X connect 8 2 2 0;
#X connect 9 0 19 0;
#X connect 10 0 7 0;
#X connect 10 1 3 0;
#X connect 10 2 11 0;
#X connect 11 0 13 0;
#X connect 12 0 13 0;
#X connect 14 0 17 0;
#X connect 15 0 14 0;
#X connect 16 0 1 0;
#X connect 17 0 16 1;
#X connect 19 0 16 0;
