#N canvas 357 121 833 311 12;
#X declare -path ./modules;
#X obj 110 6 loadbang;
#X obj 476 37 declare -path ./modules;
#N canvas 383 126 402 340 APPEND 0;
#X obj 38 36 inlet;
#X obj 38 207 list;
#X obj 38 130 t b b b;
#X obj 188 263 stdout -cr;
#X obj 38 83 t b b;
#X obj 98 60 bng 15 250 50 0 empty empty empty 17 7 0 10 -262144 -1
-1;
#X obj 38 263 stdout -cr;
#X msg 188 174 left2;
#X obj 188 214 list append right2;
#X msg 38 174 left1;
#X msg 78 174 right1;
#X connect 0 0 4 0;
#X connect 1 0 6 0;
#X connect 2 0 9 0;
#X connect 2 1 10 0;
#X connect 4 0 7 0;
#X connect 4 1 2 0;
#X connect 5 0 4 0;
#X connect 7 0 8 0;
#X connect 8 0 3 0;
#X connect 9 0 1 0;
#X connect 10 0 1 1;
#X restore 27 172 pd APPEND;
#N canvas 383 126 428 358 PREPEND 0;
#X obj 38 36 inlet;
#X obj 38 273 stdout -cr;
#X msg 38 174 left3;
#X obj 38 214 list prepend right3;
#X obj 218 273 stdout -cr;
#X msg 218 174 left4;
#X obj 38 105 t b b;
#X obj 218 139 t b b;
#X obj 218 214 list prepend;
#X msg 268 174 right4;
#X connect 0 0 6 0;
#X connect 2 0 3 0;
#X connect 3 0 1 0;
#X connect 5 0 8 0;
#X connect 6 0 7 0;
#X connect 6 1 2 0;
#X connect 7 0 5 0;
#X connect 7 1 9 0;
#X connect 8 0 4 0;
#X connect 9 0 8 1;
#X restore 107 172 pd PREPEND;
#N canvas 640 137 291 373 SPLIT 0;
#X obj 38 36 inlet;
#X obj 38 194 list split 3;
#X obj 38 85 t b b;
#X msg 48 164 list 0 1 2 3 4;
#X msg 38 134 list 5;
#X obj 38 288 stdout -cr;
#X connect 0 0 2 0;
#X connect 1 0 5 0;
#X connect 1 1 5 0;
#X connect 1 2 5 0;
#X connect 2 0 4 0;
#X connect 2 1 3 0;
#X connect 3 0 1 0;
#X connect 4 0 1 0;
#X restore 207 172 pd SPLIT;
#N canvas 640 137 291 373 TRIM 0;
#X obj 38 36 inlet;
#X obj 38 288 stdout -cr;
#X obj 38 158 list;
#X obj 38 185 list trim;
#X msg 38 134 one two three;
#X connect 0 0 4 0;
#X connect 2 0 3 0;
#X connect 3 0 1 0;
#X connect 4 0 2 0;
#X restore 287 172 pd TRIM;
#N canvas 640 137 372 373 LENGTH 0;
#X obj 38 36 inlet;
#X obj 38 288 stdout -cr;
#X obj 38 185 list length;
#X msg 38 124 0 1 2;
#X obj 38 80 t b b b;
#X msg 88 124 list rome london paris ny berlin;
#X connect 0 0 4 0;
#X connect 2 0 1 0;
#X connect 3 0 2 0;
#X connect 4 0 3 0;
#X connect 4 1 5 0;
#X connect 4 2 2 0;
#X connect 5 0 2 0;
#X restore 367 172 pd LENGTH;
#N canvas 640 137 372 373 FROMSYMBOL 0;
#X obj 38 36 inlet;
#X obj 38 288 stdout -cr;
#X msg 38 124 symbol test;
#X obj 38 185 list fromsymbol;
#X connect 0 0 2 0;
#X connect 2 0 3 0;
#X connect 3 0 1 0;
#X restore 457 172 pd FROMSYMBOL;
#N canvas 640 137 372 373 TOSYMBOL 0;
#X obj 38 36 inlet;
#X obj 38 288 stdout -cr;
#X msg 38 124 list 116 101 115 116;
#X obj 38 185 list tosymbol;
#X connect 0 0 2 0;
#X connect 2 0 3 0;
#X connect 3 0 1 0;
#X restore 558 172 pd TOSYMBOL;
#N canvas 356 137 789 373 STORE 0;
#X obj 38 36 inlet;
#X obj 38 255 list store 0 1 2;
#X msg 38 114 3;
#X obj 38 166 until;
#X obj 38 200 N_COUNTER 0 2;
#X obj 38 136 t f b;
#X msg 38 224 get \$1 1;
#X msg 38 279 store \$1;
#X obj 218 255 list store;
#X obj 218 126 t b b;
#X msg 298 224 this is a test;
#X msg 218 224 get 0 2;
#X obj 218 314 stdout -cr;
#X obj 38 318 stdout -cr;
#X obj 428 126 t b b b;
#X msg 522 191 prepend 0;
#X msg 452 191 append 4;
#X obj 428 255 list store 1 2 3;
#X obj 638 255 list store;
#X msg 638 191 list foo bar;
#X obj 38 60 t b b b b;
#X obj 428 314 stdout -cr;
#X obj 638 314 stdout -cr;
#X connect 0 0 20 0;
#X connect 1 0 7 0;
#X connect 2 0 5 0;
#X connect 3 0 4 0;
#X connect 4 0 6 0;
#X connect 5 0 3 0;
#X connect 5 1 4 3;
#X connect 6 0 1 0;
#X connect 7 0 13 0;
#X connect 8 0 12 0;
#X connect 9 0 11 0;
#X connect 9 1 10 0;
#X connect 10 0 8 1;
#X connect 11 0 8 0;
#X connect 14 0 17 0;
#X connect 14 1 16 0;
#X connect 14 2 15 0;
#X connect 15 0 17 0;
#X connect 16 0 17 0;
#X connect 17 0 21 0;
#X connect 18 0 22 0;
#X connect 19 0 18 0;
#X connect 20 0 19 0;
#X connect 20 1 14 0;
#X connect 20 2 9 0;
#X connect 20 3 2 0;
#X restore 658 172 pd STORE;
#X obj 90 249 EXIT;
#X obj 90 219 delay 1000;
#X obj 110 38 t b b b b;
#X msg 287 218 teststart;
#X msg 207 218 testend;
#X obj 150 90 t b b b b b b b b;
#X obj 207 254 stdout -cr;
#X connect 0 0 12 0;
#X connect 11 0 10 0;
#X connect 12 0 11 0;
#X connect 12 1 14 0;
#X connect 12 2 15 0;
#X connect 12 3 13 0;
#X connect 13 0 16 0;
#X connect 14 0 16 0;
#X connect 15 0 9 0;
#X connect 15 1 8 0;
#X connect 15 2 7 0;
#X connect 15 3 6 0;
#X connect 15 4 5 0;
#X connect 15 5 4 0;
#X connect 15 6 3 0;
#X connect 15 7 2 0;
