#N canvas 827 389 833 621 12;
#X declare -path ./modules;
#X obj 150 270 pack f s 100;
#X obj 535 46 declare -path ./modules;
#X obj 127 60 loadbang;
#X obj 127 85 t b b;
#X msg 159 123 teststart;
#X obj 159 148 stdout -cr;
#X obj 150 295 stdout -cr;
#X obj 127 202 t b b b;
#X msg 150 239 1;
#X msg 190 239 symbol test;
#X msg 159 497 testend;
#X obj 127 464 t b b;
#X obj 127 550 del 250;
#X obj 127 575 EXIT;
#X msg 159 354 1 2 3 4 5;
#X obj 159 379 pack 0 0 0;
#X obj 159 404 stdout -cr;
#X obj 127 323 t b b;
#X obj 159 522 stdout -cr;
#X text 253 380 <<< check list is truncated \;;
#X text 253 270 <<< check float symbol and init values \;;
#X connect 0 0 6 0;
#X connect 2 0 3 0;
#X connect 3 0 7 0;
#X connect 3 1 4 0;
#X connect 4 0 5 0;
#X connect 7 0 17 0;
#X connect 7 1 8 0;
#X connect 7 2 9 0;
#X connect 8 0 0 0;
#X connect 9 0 0 1;
#X connect 10 0 18 0;
#X connect 11 0 12 0;
#X connect 11 1 10 0;
#X connect 12 0 13 0;
#X connect 14 0 15 0;
#X connect 15 0 16 0;
#X connect 17 0 11 0;
#X connect 17 1 14 0;
