#N canvas 470 65 529 592 12;
#X obj 84 17 loadbang;
#X obj 107 349 stdout -cr;
#X obj 84 44 t b b;
#X msg 187 304 teststart;
#X msg 107 304 testend;
#X obj 84 227 del 1000;
#X obj 84 72 del 2000;
#X obj 84 125 pdcontrol_subpatch 1 a;
#X msg 84 101 args;
#X obj 84 183 t b b l;
#X obj 84 414 EXIT;
#X connect 0 0 2 0;
#X connect 2 0 6 0;
#X connect 2 1 3 0;
#X connect 3 0 1 0;
#X connect 4 0 1 0;
#X connect 5 0 10 0;
#X connect 6 0 8 0;
#X connect 7 0 9 0;
#X connect 8 0 7 0;
#X connect 9 0 5 0;
#X connect 9 1 4 0;
#X connect 9 2 1 0;
