#N canvas 470 65 529 592 12;
#X declare -path ./modules;
#X obj 84 17 loadbang;
#X obj 217 389 stdout -cr;
#X obj 84 44 t b b;
#X msg 297 344 teststart;
#X msg 217 344 testend;
#X obj 84 287 del 1000;
#X obj 84 72 del 2000;
#X obj 217 235 pdcontrol_subpatch 1 a;
#X msg 217 191 args;
#X obj 84 474 EXIT;
#X obj 315 42 declare -path ./modules;
#X obj 84 116 t b b;
#X obj 217 273 t b l;
#X connect 0 0 2 0;
#X connect 2 0 6 0;
#X connect 2 1 3 0;
#X connect 3 0 1 0;
#X connect 4 0 1 0;
#X connect 5 0 9 0;
#X connect 6 0 11 0;
#X connect 7 0 12 0;
#X connect 8 0 7 0;
#X connect 11 0 5 0;
#X connect 11 1 8 0;
#X connect 12 0 4 0;
#X connect 12 1 1 0;
