#N canvas 470 65 529 592 12;
#X obj 84 17 loadbang;
#X obj 107 349 stdout -cr;
#X obj 84 44 t b b;
#X msg 187 304 teststart;
#X msg 107 304 testend;
#X obj 84 227 del 1000;
#X msg 84 381 quit;
#X obj 180 381 r autoexitoff;
#X obj 180 405 sel 1;
#X msg 180 429 0;
#X obj 84 418 spigot 1;
#X obj 84 72 del 2000;
#X obj 84 455 s pd;
#X obj 84 125 pdcontrol_subpatch 1 a;
#X msg 84 101 args;
#X obj 84 183 t b b l;
#X connect 0 0 2 0;
#X connect 2 0 11 0;
#X connect 2 1 3 0;
#X connect 3 0 1 0;
#X connect 4 0 1 0;
#X connect 5 0 6 0;
#X connect 6 0 10 0;
#X connect 7 0 8 0;
#X connect 8 0 9 0;
#X connect 9 0 10 1;
#X connect 10 0 12 0;
#X connect 11 0 14 0;
#X connect 13 0 15 0;
#X connect 14 0 13 0;
#X connect 15 0 5 0;
#X connect 15 1 4 0;
#X connect 15 2 1 0;
