#N canvas 761 468 858 515 12;
#X declare -path ./modules;
#X obj 223 62 loadbang;
#X obj 223 107 t b b;
#X obj 492 69 declare -path ./modules;
#X msg 308 139 teststart;
#X obj 308 164 stdout -cr;
#X obj 223 196 t b b;
#X obj 255 310 stdout -cr;
#X obj 223 341 t b b;
#X msg 255 367 testend;
#X obj 255 392 stdout -cr;
#X obj 223 426 del 250;
#X obj 223 471 EXIT;
#X text 345 263 <<< what about pointers?!?!?!? \;;
#X obj 255 265 unpack f s;
#X msg 255 226 1 test 3rd;
#X connect 0 0 1 0;
#X connect 1 0 5 0;
#X connect 1 1 3 0;
#X connect 3 0 4 0;
#X connect 5 0 7 0;
#X connect 5 1 14 0;
#X connect 7 0 10 0;
#X connect 7 1 8 0;
#X connect 8 0 9 0;
#X connect 10 0 11 0;
#X connect 13 0 6 0;
#X connect 13 1 6 0;
#X connect 14 0 13 0;
